<svg xmlns="http://www.w3.org/2000/svg" viewBox="0 0 594.2 430.8"><path d="M0 359.4L75.6 288c20.6 24.8 39.9 39.3 66.6 39.3 29.1 0 47.8-20 47.8-59.3V0h116.8v268.7c0 53.2-13.3 90.8-41.8 119.2-27.8 27.8-67.8 43-116.2 43C75 430.8 30.2 400 0 359.4z" fill="#0061ee"/><g opacity=".5"><linearGradient id="a" gradientUnits="userSpaceOnUse" x1="151.134" y1="203.889" x2="270.034" y2="246.169" gradientTransform="matrix(1 0 0 -1 0 432)"><stop offset="0" stop-color="#fff" stop-opacity="0"/><stop offset="1"/></linearGradient><path d="M0 359.4L75.6 288c20.6 24.8 39.9 39.3 66.6 39.3 29.1 0 47.8-20 47.8-59.3V0h116.8v268.7c0 53.2-13.3 90.8-41.8 119.2-27.8 27.8-67.8 43-116.2 43C75 430.8 30.2 400 0 359.4z" fill="url(#a)"/></g><path fill="#ff3c00" d="M477.4 0l-85.3 267.1L306.8 0H190l152.1 425H442L594.2 0z"/></svg>